<?xml version="1.0" encoding="UTF-8" standalone="no"?>
<svg width="12px" height="13px" viewBox="0 0 12 13" version="1.1" xmlns="http://www.w3.org/2000/svg" xmlns:xlink="http://www.w3.org/1999/xlink">
    <!-- Generator: sketchtool 40.3 (33839) - http://www.bohemiancoding.com/sketch -->
    <title>355CFFAB-BA93-4D42-BC36-E70C845A6BF4</title>
    <desc>Created with sketchtool.</desc>
    <defs></defs>
    <g id="Page-2" stroke="none" stroke-width="1" fill="none" fill-rule="evenodd">
        <g id="v4-section1" transform="translate(-1200.000000, -45.000000)" fill="#FFFFFF">
            <g id="Nav" transform="translate(54.000000, 36.000000)">
                <g id="Nav-CTA" transform="translate(1014.000000, 0.000000)">
                    <g id="Messenger-Icon" transform="translate(132.000000, 9.000000)">
                        <path d="M5.99774676,0 C2.68527691,0 0,2.50180546 0,5.58796282 C0,7.34649472 0.872169237,8.91507314 2.23518513,9.93938398 L2.23518513,12.0699997 L4.27736202,10.942237 C4.82237466,11.0940061 5.39976023,11.1759256 5.99774676,11.1759256 C9.31021662,11.1759256 11.9954935,8.67412018 11.9954935,5.58796282 C11.9954935,2.50180546 9.31021662,0 5.99774676,0 L5.99774676,0 Z M6.59379613,7.52512327 L5.06641962,5.88598751 L2.08617279,7.52512327 L5.36444431,4.02333323 L6.9290739,5.66246899 L9.87206765,4.02333323 L6.59379613,7.52512327 L6.59379613,7.52512327 Z" id="Shape"></path>
                    </g>
                </g>
            </g>
        </g>
    </g>
</svg>