<?xml version="1.0" encoding="UTF-8" standalone="no"?>
<svg width="45px" height="48px" viewBox="0 0 45 48" version="1.1" xmlns="http://www.w3.org/2000/svg" xmlns:xlink="http://www.w3.org/1999/xlink">
    <!-- Generator: sketchtool 40.3 (33839) - http://www.bohemiancoding.com/sketch -->
    <title>AB411BE1-FBF4-4199-94CC-657B5F770E33</title>
    <desc>Created with sketchtool.</desc>
    <defs>
        <polygon id="path-1" points="0 0.853330363 0 7.24493193 4.23817814 7.24493193 4.23817814 0.853330363 1.39897055e-20 0.853330363"></polygon>
        <polygon id="path-3" points="0.160198937 24.9986984 23.656469 24.9986984 23.656469 0.039481729 0.160198937 0.039481729 0.160198937 24.9986984"></polygon>
    </defs>
    <g id="Page-2" stroke="none" stroke-width="1" fill="none" fill-rule="evenodd">
        <g id="animation-specs" transform="translate(-61.000000, -494.000000)">
            <g id="Raheem-Conversation" transform="translate(60.000000, 275.000000)">
                <g id="chat-3" transform="translate(0.000000, 166.000000)">
                    <g id="Raheem-Avatar-01" transform="translate(0.000000, 53.000000)">
                        <g transform="translate(1.000000, 0.000000)">
                            <g id="Group-2">
                                <path d="M0.4661,23.4791 C0.4661,10.6911 10.8321,0.3251 23.6201,0.3251 C36.4081,0.3251 46.7741,10.6911 46.7741,23.4791 C46.7741,36.2671 36.4081,46.6331 23.6201,46.6331 C10.8321,46.6331 0.4661,36.2671 0.4661,23.4791" id="Circle" fill="#FFFFFF"></path>
                                <g id="Raheem-Avatar" transform="translate(10.000000, 6.000000)">
                                    <path d="M0.680670968,17.735522 C0.736412903,19.1364202 1.42596129,20.248308 2.2208,20.2182027 C3.01563871,20.1880974 3.61434839,19.0280413 3.55860645,17.627143 C3.50286452,16.2262448 2.81331613,15.1143571 2.01847742,15.1444623 C1.22363871,15.1745676 0.624929032,16.3346237 0.680670968,17.735522" id="Fill-1" fill="#C29570"></path>
                                    <g id="Group-5" transform="translate(0.000000, 13.632375)">
                                        <mask id="mask-2" fill="white">
                                            <use xlink:href="#path-1"></use>
                                        </mask>
                                        <g id="Clip-4"></g>
                                        <path d="M2.04965161,2.16918456 L2.04345806,2.16918456 C1.94642581,2.1731986 1.78126452,2.30365474 1.63468387,2.58865123 C1.43649032,2.9739986 1.33532903,3.51790035 1.35803871,4.07785825 C1.40345806,5.21784421 1.92578065,5.92832842 2.18797419,5.92832842 L2.19416774,5.92832842 C2.45636129,5.91829333 2.92707097,5.16766877 2.88165161,4.01965474 C2.83623226,2.87966877 2.31390968,2.16918456 2.04965161,2.16918456 M2.18797419,7.24493193 C1.00913548,7.24493193 0.0759741935,5.92030035 0.00371612903,4.12803368 C-0.0272516129,3.34128281 0.121393548,2.58463719 0.424877419,1.99858807 C0.788232258,1.29412491 1.36010323,0.878672281 1.99184516,0.85458807 C3.20165161,0.806419649 4.16165161,2.14710737 4.23390968,3.9694793 C4.30616774,5.78984421 3.45352258,7.19877053 2.24578065,7.24493193 L2.18797419,7.24493193" id="Fill-3" fill="#000000" mask="url(#mask-2)"></path>
                                    </g>
                                    <path d="M27.2968258,17.735522 C27.2410839,19.1364202 26.5515355,20.248308 25.7566968,20.2182027 C24.9618581,20.1880974 24.3631484,19.0280413 24.4188903,17.627143 C24.4746323,16.2262448 25.1641806,15.1143571 25.9590194,15.1444623 C26.7538581,15.1745676 27.3525677,16.3346237 27.2968258,17.735522" id="Fill-6" fill="#C29570"></path>
                                    <path d="M25.928671,15.8017606 C25.8295742,15.8017606 25.6582194,15.9201746 25.4930581,16.189115 C25.2618323,16.5584062 25.1173161,17.0922729 25.096671,17.6522308 C25.0512516,18.8002448 25.5219613,19.5508694 25.7841548,19.5609044 L25.7882839,19.5609044 C26.0525419,19.5609044 26.5748645,18.8504202 26.6202839,17.7104343 C26.6429935,17.1504764 26.5418323,16.6065746 26.3415742,16.2212273 C26.1949935,15.9362308 26.0298323,15.8057746 25.9328,15.8017606 L25.928671,15.8017606 Z M25.7903484,20.877508 C25.7697032,20.877508 25.7511226,20.877508 25.7304774,20.8755009 C24.5248,20.8313466 23.6700903,19.4224202 23.7423484,17.6020553 C23.7733161,16.8153044 23.9838968,16.0707009 24.3328,15.508736 C24.7498323,14.8343781 25.3547355,14.4590659 25.9864774,14.4871641 C26.6182194,14.5092413 27.1900903,14.9267009 27.5513806,15.6311641 C27.8548645,16.2172132 28.0055742,16.9738588 27.9725419,17.7606097 C27.9023484,19.5528764 26.9691871,20.877508 25.7903484,20.877508 L25.7903484,20.877508 Z" id="Fill-8" fill="#000000"></path>
                                    <g id="Group-12" transform="translate(1.445161, 0.748618)" fill="#000000">
                                        <path d="M12.9785806,0.109492518 C20.7411613,0.0834012903 24.1806452,5.79537322 24.1806452,5.79537322 C26.0676129,8.74568901 24.1145806,13.8716118 24.1145806,13.8716118 C23.7388387,13.9157662 23.8874839,16.4646785 23.2970323,15.1019136 C22.5310968,13.3357381 21.156129,8.49481182 19.5747097,8.49681883 C16.7710968,8.50283989 17.5287742,9.07283287 12.4707097,9.00660129 C7.41470968,8.94237673 8.18683871,8.39245392 5.38322581,8.31418024 C3.63251613,8.26601182 2.81496774,12.8179276 2.02632258,14.6623767 C1.55354839,15.7682434 0.950709677,13.7993592 0.950709677,13.7993592 C0.950709677,13.7993592 -1.11380645,8.39646796 0.853677419,5.49432059 C0.853677419,5.49432059 4.448,-0.125328534 12.2064516,0.0994574307 L12.9785806,0.109492518 Z" id="Fill-10"></path>
                                    </g>
                                    <path d="M24.6984258,14.9608202 L24.3102968,10.6698167 C24.3185548,10.0877816 23.8024258,9.60609743 23.1562323,9.59806936 L4.86461935,9.36324831 C4.21842581,9.35522024 3.68784516,9.82084831 3.68165161,10.4048904 L3.2955871,14.8123009 C3.2955871,14.8123009 2.35210323,23.5388132 3.25429677,25.800722 C4.15442581,28.0626308 9.21868387,31.293929 9.21868387,31.293929 C9.21868387,31.293929 12.4413935,33.0882027 13.9340387,33.0841887 C15.3792,33.1082729 18.6246194,31.3581536 18.6246194,31.3581536 C18.6246194,31.3581536 23.7281032,28.199108 24.6571355,25.9492413 C25.5882323,23.7013816 24.6984258,14.9608202 24.6984258,14.9608202" id="Fill-13" fill="#C0946F"></path>
                                    <path d="M24.4079484,15.1308146 L24.0198194,10.8398111 C24.0280774,10.257776 23.5119484,9.77609182 22.8657548,9.76806375 L20.5617548,9.7399655 C21.2058839,9.74799357 21.7240774,10.2276708 21.7158194,10.8117129 L22.1018839,15.1007094 C22.1018839,15.1007094 22.9916903,23.8412708 22.0626581,26.0911374 C21.1315613,28.3389971 16.0280774,31.4980427 16.0280774,31.4980427 C16.0280774,31.4980427 14.0172387,32.5838392 12.4564645,33.0334111 C12.9003355,33.1678813 13.3132387,33.254183 13.6435613,33.254183 C15.0887226,33.2782673 18.3320774,31.528148 18.3320774,31.528148 C18.3320774,31.528148 23.4376258,28.3691023 24.3666581,26.1192357 C25.2977548,23.871376 24.4079484,15.1308146 24.4079484,15.1308146" id="Fill-15" fill="#997155"></path>
                                    <path d="M10.0490323,17.6486181 C10.0407742,18.2145971 9.56180645,18.668183 8.9796129,18.660155 C8.39741935,18.6521269 7.93083871,18.1885059 7.93909677,17.6205199 C7.94735484,17.0545409 8.42632258,16.602962 9.00851613,16.608983 C9.59070968,16.6170111 10.0572903,17.0826392 10.0490323,17.6486181" id="Fill-17" fill="#000000"></path>
                                    <path d="M19.8750968,17.7750602 C19.8668387,18.3410392 19.387871,18.7946251 18.8056774,18.7865971 C18.2234839,18.778569 17.7569032,18.314948 17.7651613,17.746962 C17.7734194,17.180983 18.2523871,16.7294041 18.8345806,16.7354251 C19.4167742,16.7434532 19.8833548,17.2090813 19.8750968,17.7750602" id="Fill-19" fill="#000000"></path>
                                    <path d="M6.99107097,13.9593185 C6.86926452,13.9573115 6.74952258,13.9151641 6.65249032,13.8288623 C6.44603871,13.6422097 6.43365161,13.329115 6.6235871,13.1284132 C6.6752,13.0742237 7.90978065,11.7977606 10.1683613,12.0084974 C10.447071,12.0345887 10.6535226,12.2754308 10.6266839,12.5483851 C10.5998452,12.8213395 10.3500387,13.0220413 10.071329,12.993943 C8.31236129,12.8313746 7.38126452,13.790729 7.37300645,13.7987571 C7.26978065,13.907136 7.13145806,13.9613255 6.99107097,13.9593185" id="Fill-21" fill="#000000"></path>
                                    <path d="M21.0535226,14.1403515 C20.9152,14.1383444 20.7768774,14.082148 20.6777806,13.973769 C20.6364903,13.9276076 19.7322323,12.9802953 18.0021677,13.0967023 C17.7234581,13.1167725 17.4777806,12.9100497 17.4592,12.6370953 C17.4385548,12.3641409 17.6512,12.1273129 17.9319742,12.1092497 C20.1926194,11.9567164 21.3941677,13.2632848 21.4437161,13.3194813 C21.6295226,13.5262041 21.6068129,13.8372918 21.3941677,14.0179234 C21.2971355,14.1022181 21.175329,14.1423585 21.0535226,14.1403515" id="Fill-23" fill="#000000"></path>
                                    <path d="M14.1140645,23.9542659 C13.0343226,23.9402167 11.7274839,23.5307851 11.2712258,22.7761466 C11.2154839,22.6958659 11.1824516,22.599529 11.1845161,22.4951641 C11.1886452,22.2683711 11.3476129,22.0716834 11.5747097,22.0174939 C11.8018065,21.9653115 12.0350968,22.0656623 12.1445161,22.2663641 C12.3179355,22.5854799 13.2036129,22.9527641 14.1285161,22.9648062 C15.1112258,22.9768483 16.0609032,22.5393185 16.1806452,22.3065044 C16.3065806,22.0616483 16.612129,21.9633044 16.864,22.0857325 C17.115871,22.2081606 17.2190968,22.5051992 17.0931613,22.7500553 C16.7132903,23.4886378 15.2454194,23.968315 14.1140645,23.9542659" id="Fill-25" fill="#000000"></path>
                                    <path d="M17.1877161,27.7075894 C17.1773935,28.4301157 15.8168774,28.9981016 14.1466839,28.9760244 C12.4764903,28.9539473 11.1324903,28.351842 11.1428129,27.6293157 C11.151071,26.9067894 12.5136516,26.3388034 14.1817806,26.3608806 C15.8519742,26.3829578 17.1980387,26.985063 17.1877161,27.7075894" id="Fill-27" fill="#997155"></path>
                                    <path d="M5.09543226,15.8003557 C4.81672258,15.7963416 4.59375484,15.5755697 4.59375484,15.3046223 C4.59375484,15.031668 4.82085161,14.810896 5.10369032,14.810896 L12.7052387,14.8169171 C12.9798194,14.8189241 13.2131097,15.039696 13.2131097,15.3126504 C13.2131097,15.5856048 12.9839484,15.8083837 12.7031742,15.8063767 L5.10162581,15.8003557 L5.09543226,15.8003557 Z" id="Fill-29" fill="#000000"></path>
                                    <path d="M15.3269677,15.8093873 C15.0482581,15.8053732 14.8252903,15.5846013 14.8252903,15.3136539 C14.8252903,15.0406995 15.0523871,14.8199276 15.3352258,14.8199276 L22.9367742,14.8259487 C23.2258065,14.8219346 23.4446452,15.0487276 23.4446452,15.321682 C23.4446452,15.5946364 23.2175484,15.8174153 22.9347097,15.8154083 L15.3331613,15.8093873 L15.3269677,15.8093873 Z" id="Fill-31" fill="#000000"></path>
                                    <path d="M12.4430452,18.1272918 C12.2716903,18.1252848 12.106529,18.038983 12.0115613,17.8864497 C11.8670452,17.6516287 11.9475613,17.346562 12.1870452,17.2080778 C12.2654968,17.1619164 14.0864,16.1283023 15.8556903,17.2161059 C16.0951742,17.3626181 16.1653677,17.6676848 16.0146581,17.8984918 C15.8639484,18.1313059 15.5501419,18.1995444 15.3127226,18.0530322 C14.0657548,17.2883585 12.7238194,18.0490181 12.7114323,18.0570462 C12.6267871,18.1052146 12.5338839,18.1292988 12.4430452,18.1272918" id="Fill-33" fill="#000000"></path>
                                    <path d="M6.04634839,15.8125985 L6.02776774,17.1432511 C6.00712258,18.6966827 7.29125161,19.9791669 8.89125161,19.9992371 C10.4912516,20.0193073 11.8084129,18.7709423 11.8311226,17.2175108 L11.8476387,15.8868581 L6.04634839,15.8125985 Z M8.8768,20.9907037 C6.71525161,20.9626055 4.98105806,19.2305494 5.00996129,17.129202 L5.03473548,15.304823 C5.03886452,15.0318687 5.27009032,14.8131037 5.55086452,14.8151108 L12.3720258,14.9034195 C12.6528,14.9074336 12.8778323,15.1322195 12.8737032,15.4051739 L12.848929,17.2295529 C12.8200258,19.3309002 11.0383484,21.016795 8.8768,20.9907037 L8.8768,20.9907037 Z" id="Fill-35" fill="#000000"></path>
                                    <path d="M16.2246194,15.9436567 L16.2060387,17.2743094 C16.1853935,18.8277409 17.4695226,20.1102251 19.0695226,20.1302953 C20.6695226,20.1503655 21.9866839,18.9020006 22.0093935,17.348569 L22.0259097,16.0179164 L16.2246194,15.9436567 Z M19.055071,21.121762 C16.8935226,21.0936637 15.159329,19.3616076 15.1882323,17.2602602 L15.2130065,15.4358813 C15.2171355,15.1629269 15.4483613,14.944162 15.7291355,14.946169 L22.5502968,15.0344778 C22.831071,15.0384918 23.0561032,15.2632778 23.0519742,15.5362322 L23.0272,17.3606111 C22.9982968,19.4619585 21.2166194,21.1478532 19.055071,21.121762 L19.055071,21.121762 Z" id="Fill-37" fill="#000000"></path>
                                    <g id="Group-41" transform="translate(2.064516, 8.703852)">
                                        <mask id="mask-4" fill="white">
                                            <use xlink:href="#path-3"></use>
                                        </mask>
                                        <g id="Clip-40"></g>
                                        <path d="M16.5592774,22.6547026 L16.5613419,22.6547026 L16.5592774,22.6547026 Z M7.48779355,22.0606254 C8.67076129,22.7189271 10.8756645,23.7485271 11.8439226,23.7605692 L11.8728258,23.7605692 C12.8142452,23.7726113 15.0356645,22.7670956 16.2330839,22.1228429 C17.6183742,21.2618324 21.3056,18.700878 22.0034065,17.0149833 C22.717729,15.2869412 22.2428903,8.70793766 22.0013419,6.31757976 L21.9992774,6.31155871 L21.6132129,2.0205552 C21.6111484,2.00048503 21.6090839,1.98041485 21.6111484,1.95833766 C21.6132129,1.71749555 21.3778581,1.5167938 21.0846968,1.51277976 L2.79101935,1.27795871 C2.49785806,1.27394467 2.25630968,1.46862538 2.25218065,1.70946748 C2.25218065,1.70946748 2.25218065,1.73957274 2.25011613,1.75362187 L1.86405161,6.16103239 C1.6059871,8.55941836 1.08985806,15.1344078 1.78353548,16.872485 C2.45863226,18.5684149 6.11282581,21.1815517 7.48779355,22.0606254 L7.48779355,22.0606254 Z M11.8191484,24.9988991 C10.2067613,24.9768219 7.18018065,23.3170184 6.83747097,23.1263517 C6.82508387,23.1203306 6.81476129,23.1143096 6.80443871,23.1062815 C6.26766452,22.7650885 1.54405161,19.6983657 0.59643871,17.3200499 C-0.334658065,14.9878956 0.499406452,6.95179731 0.59643871,6.04261836 L0.98043871,1.66732011 C1.00727742,0.756134148 1.82069677,0.0275867799 2.80753548,0.0396288851 L21.1012129,0.276456955 C22.0839226,0.288499061 22.8746323,1.03109555 22.8828903,1.9402745 L23.2668903,6.19916573 C23.3618581,7.12440081 24.1422452,15.156485 23.1843097,17.4765973 C22.205729,19.840864 17.4408258,22.8413552 16.9019871,23.1765271 C16.8896,23.1825482 16.8792774,23.1905763 16.8689548,23.1965973 C16.5221161,23.3832499 13.4418581,25.0189692 11.8666323,24.9988991 L11.8191484,24.9988991 L11.8191484,24.9988991 Z" id="Fill-39" fill="#000000" mask="url(#mask-4)"></path>
                                    </g>
                                    <path d="M14.0733935,28.1097957 C12.1761032,28.0857115 10.9373935,27.8809957 10.8589419,27.8669466 C10.5822968,27.8207851 10.3985548,27.5638869 10.4460387,27.2949466 C10.4935226,27.0260062 10.7577806,26.8453746 11.0344258,26.891536 C11.0612645,26.8955501 13.7926194,27.345122 17.3332645,26.9698097 C17.6140387,26.9417115 17.8638452,27.1363922 17.8948129,27.4093466 C17.9257806,27.6802939 17.7234581,27.9251501 17.4447484,27.9552553 C16.1936516,28.0877185 15.0457806,28.1218378 14.0733935,28.1097957" id="Fill-42" fill="#000000"></path>
                                </g>
                            </g>
                            <g id="MSGR" transform="translate(28.000000, 31.000000)">
                                <ellipse id="Path" fill="#0084FF" cx="8.5" cy="8.5" rx="8.5" ry="8.5"></ellipse>
                                <polygon id="Path" fill="#FFFFFF" points="3.0572783 10.8219607 7.48737169 6.17061516 10.4201465 8.53211122 14.1003182 5.92600684 9.76112438 11.1877685 6.95428336 8.72180103"></polygon>
                            </g>
                        </g>
                    </g>
                </g>
            </g>
        </g>
    </g>
</svg>