<?xml version="1.0" encoding="UTF-8" standalone="no"?>
<svg width="27px" height="28px" viewBox="0 0 27 28" version="1.1" xmlns="http://www.w3.org/2000/svg" xmlns:xlink="http://www.w3.org/1999/xlink">
    <!-- Generator: sketchtool 40.3 (33839) - http://www.bohemiancoding.com/sketch -->
    <title>0D42258C-6DF3-442A-82BE-6D75FA4BC3CF</title>
    <desc>Created with sketchtool.</desc>
    <defs></defs>
    <g id="Page-2" stroke="none" stroke-width="1" fill="none" fill-rule="evenodd">
        <g id="v4-section1" transform="translate(-751.000000, -454.000000)" fill="#FFFFFF">
            <g id="Header" transform="translate(238.000000, 92.000000)">
                <g id="Large-CTA" transform="translate(235.000000, 334.000000)">
                    <g id="Messenger-Icon" transform="translate(278.000000, 28.000000)">
                        <path d="M13.501142,0 C6.04465415,0 0,5.63165338 0,12.5787037 C0,16.5372218 1.96328408,20.0681478 5.0314815,22.3739081 L5.0314815,27.1700001 L9.62849456,24.6313661 C10.8553375,24.9730037 12.155053,25.1574075 13.501142,25.1574075 C20.9576299,25.1574075 27.002284,19.5257541 27.002284,12.5787037 C27.002284,5.63165338 20.9576299,0 13.501142,0 L13.501142,0 Z M14.8428704,16.939321 L11.4046914,13.2495679 L4.6960494,16.939321 L12.0755556,9.05666669 L15.5975926,12.7464198 L22.2223766,9.05666669 L14.8428704,16.939321 L14.8428704,16.939321 Z" id="Shape"></path>
                    </g>
                </g>
            </g>
        </g>
    </g>
</svg>