<?xml version="1.0" encoding="UTF-8" standalone="no"?>
<svg width="66px" height="78px" viewBox="0 0 66 78" version="1.1" xmlns="http://www.w3.org/2000/svg" xmlns:xlink="http://www.w3.org/1999/xlink">
    <!-- Generator: sketchtool 40.3 (33839) - http://www.bohemiancoding.com/sketch -->
    <title>1EA3FCEC-15A3-4474-B4D9-9EFAC179758D</title>
    <desc>Created with sketchtool.</desc>
    <defs>
        <polygon id="path-1" points="0 2.00783615 0 17.0468987 9.97218386 17.0468987 9.97218386 2.00783615 3.2916954e-20 2.00783615"></polygon>
        <polygon id="path-3" points="0.376938676 58.8204667 55.6622801 58.8204667 55.6622801 0.0928981858 0.376938676 0.0928981858 0.376938676 58.8204667"></polygon>
    </defs>
    <g id="Page-2" stroke="none" stroke-width="1" fill="none" fill-rule="evenodd">
        <g id="v4-section1" transform="translate(-607.000000, -93.000000)">
            <g id="Header" transform="translate(238.000000, 92.000000)">
                <g id="Raheem-Avatar" transform="translate(369.000000, 0.000000)">
                    <path d="M1.60157875,40.73064 C1.73273624,44.0268711 3.35520304,46.6430775 5.22541176,46.5722416 C7.09562049,46.5014057 8.50434915,43.7718619 8.37319165,40.4756307 C8.24203416,37.1793995 6.61956736,34.5631931 4.74935863,34.634029 C2.87914991,34.704865 1.47042125,37.4344088 1.60157875,40.73064" id="Fill-1" fill="#C29570"></path>
                    <g id="Group-5" transform="translate(0.000000, 31.076177)">
                        <mask id="mask-2" fill="white">
                            <use xlink:href="#path-1"></use>
                        </mask>
                        <g id="Clip-4"></g>
                        <path d="M4.82270968,5.10396367 L4.80813662,5.10396367 C4.57982543,5.11340846 4.19121063,5.42036409 3.84631499,6.09094407 C3.37997723,6.99764376 3.14195066,8.27741259 3.1953852,9.59496058 C3.30225427,12.2772805 4.53124858,13.949008 5.14817457,13.949008 L5.16274763,13.949008 C5.77967362,13.9253961 6.88722581,12.1592206 6.78035674,9.45801115 C6.67348767,6.77569123 5.44449336,5.10396367 4.82270968,5.10396367 M5.14817457,17.0468987 C2.37443643,17.0468987 0.178762808,13.9301185 0.00874383302,9.71302043 C-0.0641214421,7.8618419 0.285631879,6.08149928 0.999711575,4.70256017 C1.85466414,3.04499979 3.20024288,2.06746419 4.6866945,2.01079546 C7.53329791,1.897458 9.79212144,5.05201734 9.96214042,9.33995129 C10.1321594,13.6231628 8.12593548,16.9382836 5.28418975,17.0468987 L5.14817457,17.0468987" id="Fill-3" fill="#000000" mask="url(#mask-2)"></path>
                    </g>
                    <path d="M64.2278254,40.73064 C64.0966679,44.0268711 62.4742011,46.6430775 60.6039924,46.5722416 C58.7337837,46.5014057 57.325055,43.7718619 57.4562125,40.4756307 C57.58737,37.1793995 59.2098368,34.5631931 61.0800455,34.634029 C62.9502543,34.704865 64.3589829,37.4344088 64.2278254,40.73064" id="Fill-6" fill="#C29570"></path>
                    <path d="M61.0086376,36.1806131 C60.7754687,36.1806131 60.3722808,36.4592344 59.983666,37.0920352 C59.4396053,37.9609558 59.0995674,39.2171126 59.0509905,40.5346606 C58.9441214,43.2358701 60.0516736,45.0020456 60.6685996,45.0256575 L60.678315,45.0256575 C61.3000987,45.0256575 62.529093,43.35393 62.635962,40.6716101 C62.6893966,39.3540621 62.45137,38.0742932 61.9801746,37.1675935 C61.6352789,36.4970136 61.2466641,36.1900579 61.0183529,36.1806131 L61.0086376,36.1806131 Z M60.6831727,48.1235481 C60.6345958,48.1235481 60.5908767,48.1235481 60.5422998,48.1188257 C57.7054118,48.0149331 55.6943302,44.6998123 55.8643491,40.4166008 C55.9372144,38.5654222 56.4326983,36.813414 57.2536471,35.4911436 C58.2348994,33.9044191 59.6582011,33.0213314 61.1446528,33.0874449 C62.6311044,33.1393913 63.9766831,34.1216493 64.826778,35.7792096 C65.5408577,37.1581488 65.8954687,38.9384914 65.8177457,40.7896699 C65.6525844,45.0067679 63.4569108,48.1235481 60.6831727,48.1235481 L60.6831727,48.1235481 Z" id="Fill-8" fill="#000000"></path>
                    <g id="Group-12" transform="translate(3.400380, 0.761453)" fill="#000000">
                        <path d="M30.5378368,0.257629455 C48.8027324,0.19623833 56.8956357,13.6361723 56.8956357,13.6361723 C61.3355598,20.5780918 56.7401898,32.6390866 56.7401898,32.6390866 C55.8560911,32.7429793 56.2058444,38.74042 54.8165465,35.5339143 C53.0143454,31.3782074 49.7791271,19.9877925 46.0581404,19.9925149 C39.4614042,20.0066821 41.2441746,21.347842 29.3428463,21.192003 C17.4463757,21.0408864 19.2631499,19.7469504 12.6664137,19.562777 C8.54709677,19.4494396 6.62345351,30.1598297 4.76781784,34.49971 C3.65540797,37.1017492 2.23696395,32.4690804 2.23696395,32.4690804 C2.23696395,32.4690804 -2.62072106,19.7563952 2.00865275,12.9278131 C2.00865275,12.9278131 10.4658824,-0.294890669 28.7210626,0.234017484 L30.5378368,0.257629455 Z" id="Fill-10"></path>
                    </g>
                    <path d="M58.1139431,34.20193 L57.2006983,24.1054511 C57.220129,22.7359568 56.0057078,21.6025822 54.4852524,21.5836926 L11.4461632,21.0311725 C9.92570778,21.0122829 8.67728273,22.1078784 8.66270968,23.4820951 L7.75432258,33.8524728 C7.75432258,33.8524728 5.53436053,54.3854429 7.65716888,59.7075812 C9.77511954,65.0297194 21.6910209,72.6327741 21.6910209,72.6327741 C21.6910209,72.6327741 29.2738672,76.8545946 32.7859734,76.8451498 C36.1863529,76.9018185 43.8226338,72.7838908 43.8226338,72.7838908 C43.8226338,72.7838908 55.8308311,65.3508423 58.0167894,60.0570383 C60.2076053,54.7679568 58.1139431,34.20193 58.1139431,34.20193" id="Fill-13" fill="#C0946F"></path>
                    <path d="M57.4304668,34.6019168 L56.517222,24.5054379 C56.5366528,23.1359436 55.3222315,22.002569 53.8017761,21.9836794 L48.3805996,21.9175659 C49.8961973,21.9364555 51.1154763,23.0651077 51.0960455,24.4393244 L52.0044326,34.5310808 C52.0044326,34.5310808 54.0980949,55.0971077 51.9121366,60.3909116 C49.7213207,65.6799931 37.7131233,73.1130416 37.7131233,73.1130416 C37.7131233,73.1130416 32.9817381,75.6678569 29.3093283,76.7256732 C30.3537306,77.0420736 31.3252676,77.2451366 32.1024972,77.2451366 C35.5028767,77.3018053 43.1342998,73.1838775 43.1342998,73.1838775 C43.1342998,73.1838775 55.1473548,65.750829 57.3333131,60.4570251 C59.524129,55.1679436 57.4304668,34.6019168 57.4304668,34.6019168" id="Fill-15" fill="#997155"></path>
                    <path d="M23.6447818,40.5261603 C23.625351,41.8578755 22.4983681,42.9251366 21.1285009,42.906247 C19.7586338,42.8873574 18.660797,41.7964844 18.6802277,40.4600468 C18.6996584,39.1283316 19.8266414,38.0657929 21.1965085,38.0799601 C22.5663757,38.0988497 23.6642125,39.1944451 23.6447818,40.5261603" id="Fill-17" fill="#000000"></path>
                    <path d="M46.7649336,40.8236711 C46.7455028,42.1553863 45.6185199,43.2226474 44.2486528,43.2037578 C42.8787856,43.1848683 41.7809488,42.0939952 41.8003795,40.7575576 C41.8198102,39.4258425 42.9467932,38.3633038 44.3166603,38.3774709 C45.6865275,38.3963605 46.7843643,39.491956 46.7649336,40.8236711" id="Fill-19" fill="#000000"></path>
                    <path d="M16.4495787,31.8454553 C16.1629753,31.8407329 15.8812296,31.7415626 15.6529184,31.5384996 C15.1671499,31.099317 15.1380038,30.3626235 15.5849108,29.890384 C15.7063529,29.7628794 18.6112486,26.7594367 23.925556,27.2552881 C24.5813435,27.3166792 25.067112,27.8833665 25.003962,28.5256121 C24.9408121,29.1678577 24.3530323,29.6400972 23.6972448,29.5739836 C19.5584972,29.1914697 17.3676812,31.4487741 17.3482505,31.4676637 C17.1053662,31.722673 16.7799013,31.8501776 16.4495787,31.8454553" id="Fill-21" fill="#000000"></path>
                    <path d="M49.5377002,32.2714152 C49.2122353,32.2666928 48.8867704,32.1344658 48.6536015,31.8794565 C48.5564478,31.7708414 46.4287818,29.5418714 42.3580417,29.8157702 C41.7022543,29.8629942 41.1241898,29.3765876 41.0804706,28.7343419 C41.0318937,28.0920963 41.5322353,27.5348538 42.1928805,27.4923523 C47.5120455,27.1334503 50.3392182,30.2077289 50.4558027,30.339956 C50.8929943,30.8263626 50.8395598,31.5583337 50.3392182,31.9833492 C50.110907,32.1816897 49.8243036,32.2761376 49.5377002,32.2714152" id="Fill-23" fill="#000000"></path>
                    <path d="M33.2095636,55.3629785 C30.6689943,55.3299217 27.5940797,54.3665533 26.5205313,52.5909331 C26.3893738,52.4020373 26.3116509,52.1753624 26.3165085,51.9297979 C26.3262239,51.3961673 26.7002657,50.9333727 27.234611,50.8058681 C27.7689564,50.6830858 28.3178748,50.9192055 28.5753321,51.3914449 C28.9833776,52.1423056 31.0673245,53.0065038 33.2435674,53.0348381 C35.5558254,53.0631725 37.7903605,52.0336905 38.0721063,51.4858928 C38.368425,50.9097607 39.0873624,50.6783634 39.68,50.9664295 C40.2726376,51.2544955 40.5155218,51.9534098 40.219203,52.5295419 C39.325389,54.267383 35.871575,55.3960352 33.2095636,55.3629785" id="Fill-25" fill="#000000"></path>
                    <path d="M40.441685,64.1943279 C40.4173966,65.8943898 37.2161822,67.2308274 33.286315,67.1788811 C29.3564478,67.1269347 26.1940949,65.7102165 26.2183833,64.0101545 C26.237814,62.3100926 29.4438861,60.973655 33.3688956,61.0256014 C37.2987628,61.0775477 40.4659734,62.494266 40.441685,64.1943279" id="Fill-27" fill="#997155"></path>
                    <path d="M11.9892524,36.1773075 C11.3334649,36.1678627 10.8088349,35.6483993 10.8088349,35.0108761 C10.8088349,34.3686305 11.3431803,33.8491671 12.0086831,33.8491671 L29.8946793,33.8633343 C30.5407514,33.8680567 31.0896698,34.3875201 31.0896698,35.0297657 C31.0896698,35.6720113 30.5504668,36.1961971 29.8898216,36.1914747 L12.0038254,36.1773075 L11.9892524,36.1773075 Z" id="Fill-29" fill="#000000"></path>
                    <path d="M36.0634535,36.1985582 C35.407666,36.1891135 34.8830361,35.6696501 34.8830361,35.0321269 C34.8830361,34.3898813 35.4173814,33.8704179 36.0828843,33.8704179 L53.9688805,33.8845851 C54.6489564,33.8751403 55.163871,34.4087708 55.163871,35.0510165 C55.163871,35.6932621 54.6295256,36.2174478 53.9640228,36.2127254 L36.0780266,36.1985582 L36.0634535,36.1985582 Z" id="Fill-31" fill="#000000"></path>
                    <path d="M29.2777533,41.6524513 C28.8745655,41.6477289 28.4859507,41.444666 28.2624972,41.085764 C27.9224592,40.5332439 28.1119089,39.81544 28.6754004,39.4895948 C28.8599924,39.3809797 33.1444706,36.9489467 37.3075066,39.5084844 C37.8709981,39.8532191 38.0361594,40.5710231 37.6815484,41.1140984 C37.3269374,41.6618961 36.5885693,41.8224575 36.0299355,41.4777227 C33.0958937,39.6784905 29.9383985,41.468278 29.9092524,41.4871675 C29.7100873,41.600505 29.4914915,41.6571737 29.2777533,41.6524513" id="Fill-33" fill="#000000"></path>
                    <path d="M14.2267021,36.2061141 L14.1829829,39.3370614 C14.1344061,42.9921946 17.1558861,46.0098045 20.920592,46.0570284 C24.6852979,46.1042524 27.7845009,43.1669232 27.8379355,39.51179 L27.876797,36.3808427 L14.2267021,36.2061141 Z M20.8865882,48.3898912 C15.800592,48.3237776 11.7201366,44.2483514 11.7881442,39.3040047 L11.8464364,35.0113483 C11.8561518,34.3691027 12.4002125,33.8543618 13.0608577,33.8590842 L29.110649,34.0668695 C29.7712941,34.0763143 30.3007818,34.6052224 30.2910664,35.2474681 L30.2327742,39.5401244 C30.1647666,44.4844711 25.9725844,48.4512823 20.8865882,48.3898912 L20.8865882,48.3898912 Z" id="Fill-35" fill="#000000"></path>
                    <path d="M38.175575,36.5144864 L38.1318558,39.6454338 C38.0832789,43.3005669 41.104759,46.3181768 44.8694649,46.3654008 C48.6341708,46.4126247 51.7333738,43.4752955 51.7868083,39.8201624 L51.8256698,36.689215 L38.175575,36.5144864 Z M44.8354611,48.6982635 C39.7494649,48.63215 35.6690095,44.5567238 35.7370171,39.612377 L35.7953093,35.3197207 C35.8050247,34.6774751 36.3490854,34.1627341 37.0097306,34.1674565 L53.0595218,34.3752418 C53.720167,34.3846866 54.2496546,34.9135948 54.2399393,35.5558404 L54.1816471,39.8484967 C54.1136395,44.7928435 49.9214573,48.7596546 44.8354611,48.6982635 L44.8354611,48.6982635 Z" id="Fill-37" fill="#000000"></path>
                    <g id="Group-41" transform="translate(4.857685, 19.479653)">
                        <mask id="mask-4" fill="white">
                            <use xlink:href="#path-3"></use>
                        </mask>
                        <g id="Clip-40"></g>
                        <path d="M38.9630057,53.3051825 L38.9678634,53.3051825 L38.9630057,53.3051825 Z M17.6183378,51.9073538 C20.4017913,53.4562991 25.5897989,55.8788874 27.8680531,55.9072217 L27.9360607,55.9072217 C30.1511651,55.9355561 35.3780342,53.5696366 38.1954915,52.053748 C41.4549981,50.0278409 50.1308235,44.0020659 51.7727211,40.0352548 C53.4534801,35.9692733 52.3362125,20.4892651 51.7678634,14.8648936 L51.7630057,14.8507264 L50.8546186,4.75424753 C50.8497609,4.70702359 50.8449032,4.65979965 50.8497609,4.60785331 C50.8546186,4.041166 50.3008425,3.56892658 49.6110512,3.55948179 L6.56710436,3.00696167 C5.87731309,2.99751688 5.30896395,3.45558912 5.29924858,4.02227643 C5.29924858,4.02227643 5.29924858,4.09311234 5.29439089,4.1261691 L4.3860038,14.4965468 C3.77879317,20.1398079 2.56437192,35.6103714 4.19655408,39.6999648 C5.78501708,43.6903879 14.3831195,49.8389452 17.6183378,51.9073538 L17.6183378,51.9073538 Z M27.8097609,58.820939 C24.0159089,58.7689926 16.8945427,54.8635726 16.088167,54.4149452 C16.0590209,54.400778 16.0347324,54.3866108 16.010444,54.3677212 C14.7474459,53.5649142 3.63306262,46.3490958 1.4033852,40.7530587 C-0.78743074,35.2656366 1.175074,16.3571701 1.4033852,14.2179256 L2.30691461,3.92310615 C2.37006452,1.77913917 4.28399241,0.0649100702 6.60596584,0.0932444356 L49.6499127,0.650486954 C51.9621708,0.678821319 53.8226641,2.42610718 53.8420949,4.56535176 L54.7456243,14.5862723 C54.9690778,16.763296 56.8052827,35.6623177 54.5513169,41.1214054 C52.2487742,46.6843858 41.0372372,53.7443652 39.7693814,54.533005 C39.7402353,54.5471722 39.7159469,54.5660618 39.6916584,54.580229 C38.8755674,55.0194116 31.6279013,58.8681629 27.9214877,58.820939 L27.8097609,58.820939 L27.8097609,58.820939 Z" id="Fill-39" fill="#000000" mask="url(#mask-4)"></path>
                    </g>
                    <path d="M33.1138672,65.1406957 C28.6496546,65.084027 25.7350436,64.6023428 25.5504516,64.569286 C24.8995218,64.4606709 24.4671879,63.8562045 24.5789146,63.2234037 C24.6906414,62.5906028 25.312425,62.1655873 25.9633548,62.2742024 C26.0265047,62.2836472 32.453222,63.3414635 40.7841518,62.4583758 C41.444797,62.3922623 42.0325769,62.8503345 42.1054421,63.4925801 C42.1783074,64.1301033 41.7022543,64.7062354 41.0464668,64.7770714 C38.1027097,65.0887494 35.4018368,65.1690301 33.1138672,65.1406957" id="Fill-42" fill="#000000"></path>
                </g>
            </g>
        </g>
    </g>
</svg>